<svg xmlns="http://www.w3.org/2000/svg" viewBox="0 0 565.94 16.06"><defs><style>.cls-1,.cls-2{fill:#bd6a6a;}.cls-2{stroke:#bd6a6a;stroke-miterlimit:10;stroke-width:0.94px;}</style></defs><title>Asset 14</title><g id="Layer_2" data-name="Layer 2"><g id="diet"><path class="cls-1" d="M8,9.92H534.68c7,0,14.39.73,21.34,0a9.36,9.36,0,0,1,1,0,1.42,1.42,0,0,0,0-2.83H30.32c-7,0-14.39-.73-21.34,0a9.36,9.36,0,0,1-1,0A1.42,1.42,0,0,0,8,9.92Z"/><circle class="cls-2" cx="282.97" cy="8.03" r="7.56"/><circle class="cls-2" cx="557.91" cy="8.03" r="7.56"/><circle class="cls-2" cx="8.03" cy="8.03" r="7.56"/><circle class="cls-2" cx="99.68" cy="8.03" r="7.56"/><circle class="cls-2" cx="191.33" cy="8.03" r="7.56"/><circle class="cls-2" cx="374.62" cy="8.03" r="7.56"/><circle class="cls-2" cx="466.27" cy="8.03" r="7.56"/></g></g></svg>