<svg xmlns="http://www.w3.org/2000/svg" viewBox="0 0 145.2 131.8"><defs><style>.cls-1{fill:#bd6a6a;}</style></defs><title>Asset 4</title><g id="Layer_2" data-name="Layer 2"><g id="home"><path class="cls-1" d="M75.67,15.5C61.52,2.09,39.15-5.55,21.08,4.84,4,14.65-3.76,36.59,1.76,55.18c3.44,11.57,11.73,19.29,20,27.52l25.37,25.37,22.5,22.5a4.37,4.37,0,0,0,6.09,0l45.89-45.9c6.82-6.82,14.6-13.32,19-22.06a44.9,44.9,0,0,0-9.9-53C112.57-6.8,85.8.13,69.58,15.5c-4,3.82,2.07,9.9,6.09,6.09C89,9,111.23,2.61,125.77,16.87c13.6,13.34,14.63,35.66,1.57,49.8-12.49,13.52-26.11,26.15-39.12,39.17L69.59,124.48h6.09L34.08,82.88q-7.1-7.1-14.2-14.2C7.06,55.79,4.49,35.42,16,20.67,30.16,2.59,54.5,7.3,69.58,21.59,73.6,25.4,79.7,19.32,75.67,15.5Z"/><path class="cls-1" d="M88.41,32.33a14.2,14.2,0,0,0-2.24-4.59A64.19,64.19,0,0,0,75.52,15.93C71.43,12.2,65.32,18.28,69.43,22c3.35,3.05,6.8,6.26,9.31,10.07.32.48.61,1,.89,1.46.12.21.71,1.4.36.65s.06.16.12.42c1.11,5.42,9.41,3.13,8.3-2.29Z"/></g></g></svg>