<svg xmlns="http://www.w3.org/2000/svg" viewBox="0 0 148.73 148.75"><defs><style>.cls-1,.cls-2{fill:#bd6a6a;}.cls-2{stroke:#bd6a6a;stroke-miterlimit:10;stroke-width:1.88px;}</style></defs><title>Asset 11</title><g id="Layer_2" data-name="Layer 2"><g id="mood"><path class="cls-1" d="M143.08,74.38c-.28,28.63-18.22,55-45.38,64.71a69.51,69.51,0,0,1-76.45-20.91,69.37,69.37,0,0,1-6-79.09C30.06,14.35,59.66,1.16,88,7c31.92,6.53,54.79,35,55.1,67.43,0,3.64,5.69,3.64,5.65,0A75.33,75.33,0,0,0,99.82,4.45C70.57-6.35,36.57,3,16.83,27.08s-22.48,59.23-6.14,86a75.24,75.24,0,0,0,78.12,34.32c34.67-6.72,59.58-38,59.92-73C148.77,70.74,143.11,70.74,143.08,74.38Z"/><ellipse class="cls-2" cx="52.62" cy="60.25" rx="5.65" ry="6.6"/><ellipse class="cls-2" cx="95.97" cy="60.25" rx="5.65" ry="6.6"/><path class="cls-1" d="M48.47,113A46.5,46.5,0,0,1,63.3,100.73c14.68-7.18,27.87,1.44,37.26,12.88,2.31,2.81,6.29-1.21,4-4C94.19,97,79.29,88,62.94,94.73a46.7,46.7,0,0,0-19.35,15.46c-2.15,2.94,2.76,5.77,4.88,2.85Z"/></g></g></svg>