<svg xmlns="http://www.w3.org/2000/svg" xmlns:xlink="http://www.w3.org/1999/xlink" viewBox="0 0 750 1334"><defs><style>.cls-1{fill:url(#linear-gradient);}.cls-2{font-size:60px;font-family:BeatnikSF, Beatnik SF;}.cls-2,.cls-4{fill:#fff;}.cls-3{letter-spacing:-0.1em;}</style><linearGradient id="linear-gradient" x1="896" y1="1188" x2="-146" y2="146" gradientUnits="userSpaceOnUse"><stop offset="0.1" stop-color="#d8a46a"/><stop offset="1" stop-color="#bd6a6a"/></linearGradient></defs><title>Asset 1</title><g id="Layer_2" data-name="Layer 2"><g id="splash"><rect class="cls-1" width="750" height="1334"/><text class="cls-2" transform="translate(267.18 686.62)">In<tspan class="cls-3" x="49.32" y="0">T</tspan><tspan x="70.08" y="0">ouch</tspan></text><path class="cls-4" d="M375,491A176,176,0,1,0,551,667,176,176,0,0,0,375,491Zm0,348A172,172,0,1,1,547,667,172,172,0,0,1,375,839Z"/><path class="cls-4" d="M375,500A167,167,0,1,0,542,667,167,167,0,0,0,375,500Zm0,330.18A163.18,163.18,0,1,1,538.18,667,163.18,163.18,0,0,1,375,830.18Z"/></g></g></svg>