<svg xmlns="http://www.w3.org/2000/svg" viewBox="0 0 96.18 191.1"><defs><style>.cls-1{fill:#bd6a6a;}</style></defs><title>Asset 3</title><g id="Layer_2" data-name="Layer 2"><g id="home"><path class="cls-1" d="M57.37,3.57V80.46A3.62,3.62,0,0,0,60.93,84H92.66l-3.08-5.36L39.36,172.36l-7.19,13.42,6.64,1.8V110.68a3.62,3.62,0,0,0-3.56-3.56H3.52l3.08,5.36L56.82,18.79,64,5.37c2.17-4-4-7.65-6.15-3.6L7.64,95.46.44,108.88a3.6,3.6,0,0,0,3.08,5.36H35.25l-3.56-3.56v76.89c0,3.45,4.94,5,6.64,1.8L88.55,95.68l7.19-13.42a3.6,3.6,0,0,0-3.08-5.36H60.93l3.56,3.56V3.57C64.5-1,57.37-1,57.37,3.57Z"/></g></g></svg>