<svg xmlns="http://www.w3.org/2000/svg" viewBox="0 0 143.46 147.63"><defs><style>.cls-1{fill:#fff;}.cls-2{fill:#bd6a6a;}</style></defs><title>Asset 2</title><g id="Layer_2" data-name="Layer 2"><g id="home"><path class="cls-1" d="M42.48,13.49A10.27,10.27,0,0,0,41,13.37h0c-6.3,0-11.48,5.73-11.86,12.89h-2.8c-6.39,0-11.62,6-11.62,13.41V53.78H13.07c-5.48,0-10,5.17-10,11.5V83.16c0,6.32,4.48,11.5,10,11.5h1.66v14.09c0,7.38,5.23,13.41,11.62,13.41h2.79c.24,7.31,5.48,13.21,11.88,13.21h0a10.26,10.26,0,0,0,1.5-.12c.69,5.2,4.6,9.23,9.29,9.23h8.3c3.65,0,6.64-3.45,6.64-7.67V11.62c0-4.22-3-7.67-6.64-7.67h-8.3C47,4,43,8.14,42.48,13.49Z"/><path class="cls-2" d="M42.48,10.52C33.06,9.77,27,17.57,26.18,26.27l3-3c-8.93,0-16,4.71-17.22,14.14-.68,5.34-.17,11-.17,16.34l3-3c-6.23,0-11.28,2.9-13.57,8.91-1.69,4.44-1,9.84-1,14.5,0,4.45-.61,9.57.78,13.88,2,6.35,7.41,9.54,13.82,9.54l-3-3c0,5.38-.5,11,.17,16.34,1.19,9.44,8.29,14.14,17.21,14.14l-3-3C26.86,131,33,139,42.52,138.23L39.65,136c1,5.08,4.25,9.78,9.5,11.06,3.22.79,7.15.49,10.43.35,6.65-.28,10-5.41,10.14-11.66.21-10.72,0-21.46,0-32.18V14.5c0-5.71-1.41-12.07-8-13.35C52.19-.67,41.42,1.82,39.61,12.7c-.62,3.74,5.1,5.35,5.73,1.58.91-5.48,4.16-7.35,9.2-7.35,4.21,0,8.5-.91,9.23,4.7a42.66,42.66,0,0,1,0,5.37V128.8c0,2.59.2,5.27,0,7.85-.37,4.88-3.61,4.86-7.34,4.86-5.5,0-9.79-.45-11.05-7a3,3,0,0,0-2.87-2.18c-6.14.5-9.95-4.28-10.41-10.12a3,3,0,0,0-3-3c-7.41,0-11.31-4.16-11.44-11.67-.07-4.29,0-8.58,0-12.86a3,3,0,0,0-3-3c-10,0-8.65-10.41-8.65-17.47S4.74,56.75,14.73,56.75a3,3,0,0,0,3-3c0-4.29-.07-8.58,0-12.86.12-7.5,4-11.67,11.45-11.67a3,3,0,0,0,3-3c.56-5.7,4.38-10.28,10.35-9.81C46.29,16.76,46.27,10.82,42.48,10.52Z"/><path class="cls-2" d="M45.37,135.51V115.07c0-3.83-5.95-3.83-5.95,0v20.44c0,3.83,5.95,3.83,5.95,0Z"/><path class="cls-2" d="M32.09,62.06V26.61c0-3.83-5.95-3.83-5.95,0V62.06c0,3.83,5.95,3.83,5.95,0Z"/><path class="cls-2" d="M17.7,94.63c0-2.1.27-9.66,3.11-9.8,3.81-.19,3.83-6.14,0-5.95-7.48.38-9,9.78-9.06,15.75,0,3.83,5.93,3.83,5.95,0Z"/><path class="cls-2" d="M39.43,16.07c0,6,1.58,15.37,9.06,15.75,3.82.19,3.81-5.75,0-5.95-2.85-.14-3.11-7.7-3.11-9.8,0-3.83-6-3.83-5.95,0Z"/><path class="cls-1" d="M101,12.68a10.27,10.27,0,0,1,1.46-.12h0c6.3,0,11.48,5.73,11.86,12.89h2.8c6.39,0,11.62,6,11.62,13.41V53h1.66c5.48,0,10,5.17,10,11.5V82.35c0,6.32-4.48,11.5-10,11.5h-1.66v14.09c0,7.38-5.23,13.41-11.62,13.41h-2.79c-.24,7.31-5.48,13.21-11.88,13.21h0a10.26,10.26,0,0,1-1.5-.12c-.69,5.2-4.6,9.23-9.29,9.23h-8.3c-3.65,0-6.64-3.45-6.64-7.67V10.81c0-4.22,3-7.67,6.64-7.67h8.3C96.44,3.15,100.41,7.33,101,12.68Z"/><path class="cls-2" d="M101,15.66c6-.47,9.79,4.11,10.35,9.81a3,3,0,0,0,3,3c7.42,0,11.32,4.15,11.45,11.67.07,4.29,0,8.58,0,12.86a3,3,0,0,0,3,3c10,0,8.65,10.41,8.65,17.47s1.34,17.47-8.65,17.47a3,3,0,0,0-3,3c0,4.29.07,8.58,0,12.86-.12,7.49-4,11.67-11.44,11.67a3,3,0,0,0-3,3c-.46,5.84-4.26,10.62-10.41,10.12a3,3,0,0,0-2.87,2.18c-1,5.39-4.23,7-9.16,7-4.21,0-8.5.91-9.23-4.7a42.66,42.66,0,0,1,0-5.37V18.83c0-2.59-.2-5.27,0-7.85C80.05,6.1,83.29,6.12,87,6.12c5.62,0,10,.62,11.09,7.35.63,3.77,6.36,2.17,5.73-1.58C103,6.7,99.68,1.85,94.34.53,91.11-.27,87.17,0,83.88.17c-6.65.28-10,5.41-10.14,11.66-.21,10.72,0,21.46,0,32.18v89.11c0,5.71,1.41,12.07,8,13.35,9.41,1.81,20-.58,22-11.23l-2.87,2.18c9.55.78,15.65-7.22,16.35-16.06l-3,3c8.92,0,16-4.72,17.21-14.14.68-5.34.17-11,.17-16.34l-3,3c6.23,0,11.28-2.9,13.57-8.91,1.69-4.44,1-9.84,1-14.5,0-4.45.61-9.57-.78-13.88-2-6.35-7.41-9.54-13.82-9.54l3,3c0-5.38.5-11-.17-16.34-1.19-9.45-8.3-14.14-17.22-14.14l3,3C116.42,16.76,110.4,9,101,9.71,97.19,10,97.16,16,101,15.66Z"/><path class="cls-2" d="M104,134.71V114.27c0-3.83-5.95-3.83-5.95,0v20.44c0,3.83,5.95,3.83,5.95,0Z"/><path class="cls-2" d="M117.31,61.25V25.8c0-3.83-5.95-3.83-5.95,0V61.25c0,3.83,5.95,3.83,5.95,0Z"/><path class="cls-2" d="M131.7,93.83c0-6-1.58-15.37-9.06-15.75-3.82-.19-3.81,5.75,0,5.95,2.85.14,3.11,7.7,3.11,9.8,0,3.83,6,3.83,5.95,0Z"/><path class="cls-2" d="M98.08,15.26c0,2.1-.27,9.66-3.11,9.8-3.81.19-3.83,6.14,0,5.95,7.48-.38,9-9.78,9.06-15.75,0-3.83-5.93-3.83-5.95,0Z"/></g></g></svg>