<svg xmlns="http://www.w3.org/2000/svg" viewBox="0 0 66.68 66.67"><defs><style>.cls-1{fill:#bd6a6a;}</style></defs><title>Asset 17</title><g id="Layer_2" data-name="Layer 2"><g id="health"><path class="cls-1" d="M64.24,33.8C63.63,50.65,50,64.5,32.83,64.25A31.22,31.22,0,0,1,2.38,32.84,31.22,31.22,0,0,1,33.79,2.39C50.93,2.65,64.13,17,64.24,33.8a1.22,1.22,0,0,0,2.44,0A33.81,33.81,0,0,0,45.37,2.21,33.38,33.38,0,0,0,4.47,50.13,33.7,33.7,0,0,0,38.65,66.26c16-2.57,27.45-16.47,28-32.46C66.74,32.23,64.29,32.23,64.24,33.8Z"/><path class="cls-1" d="M59.15,33.72c-.57,14.09-11.9,25.62-26.24,25.44A26.08,26.08,0,0,1,7.47,32.92,26.11,26.11,0,0,1,33.71,7.48C48.06,7.71,59,19.64,59.15,33.72a1,1,0,0,0,2,0C61.07,22.3,54.53,11.84,43.8,7.5a28.12,28.12,0,0,0-31.68,7.71C-4.41,34.64,12.8,65,37.94,60.8,51.3,58.59,60.65,47,61.19,33.72,61.24,32.41,59.2,32.41,59.15,33.72Z"/></g></g></svg>