<svg xmlns="http://www.w3.org/2000/svg" viewBox="0 0 148.5 148.52"><defs><style>.cls-1,.cls-2{fill:#bd6a6a;}.cls-2{stroke:#bd6a6a;stroke-miterlimit:10;stroke-width:1.88px;}</style></defs><title>Asset 12</title><g id="Layer_2" data-name="Layer 2"><g id="mood"><path class="cls-1" d="M142.86,74.26c-.28,28.59-18.19,54.89-45.31,64.61A69.4,69.4,0,0,1,21.21,118a69.27,69.27,0,0,1-6-79C30,14.33,59.57,1.16,87.84,6.94c31.87,6.52,54.71,35,55,67.32,0,3.63,5.68,3.64,5.64,0A75.21,75.21,0,0,0,99.67,4.44C70.46-6.34,36.51,3,16.81,27S-5.64,86.18,10.68,112.9a75.12,75.12,0,0,0,78,34.26c34.62-6.71,59.49-38,59.83-72.9C148.54,70.63,142.89,70.63,142.86,74.26Z"/><ellipse class="cls-2" cx="52.54" cy="60.15" rx="5.64" ry="6.59"/><ellipse class="cls-2" cx="95.82" cy="60.15" rx="5.64" ry="6.59"/><path class="cls-1" d="M46.37,101.55h54.57c3.63,0,3.64-5.64,0-5.64H46.37c-3.63,0-3.64,5.64,0,5.64Z"/></g></g></svg>