<svg xmlns="http://www.w3.org/2000/svg" viewBox="0 0 75 143"><defs><style>.cls-1,.cls-3{fill:#bd6a6a;}.cls-2{fill:#fff;}.cls-3{stroke:#bd6a6a;stroke-linecap:round;stroke-miterlimit:10;}</style></defs><title>Asset 16</title><g id="Layer_2" data-name="Layer 2"><g id="health"><path class="cls-1" d="M59.5,140h-43l1.5,1.5L9.27,66.43,8,55.5,6.5,57h62L67,55.5l-7.86,75.07L58,141.5c-.2,1.92,2.8,1.9,3,0l7.86-75.07L70,55.5A1.51,1.51,0,0,0,68.5,54H6.5A1.51,1.51,0,0,0,5,55.5l8.73,75.07L15,141.5a1.54,1.54,0,0,0,1.5,1.5h43A1.5,1.5,0,0,0,59.5,140Z"/><rect class="cls-2" x="1.5" y="55.5" width="72" height="13"/><path class="cls-1" d="M73.5,67H1.5L3,68.5v-13L1.5,57h72L72,55.5v13a1.5,1.5,0,0,0,3,0v-13A1.52,1.52,0,0,0,73.5,54H1.5A1.52,1.52,0,0,0,0,55.5v13A1.52,1.52,0,0,0,1.5,70h72A1.5,1.5,0,0,0,73.5,67Z"/><polygon class="cls-2" points="40.5 55.5 34.5 55.5 44.5 1.5 50.5 1.5 40.5 55.5"/><path class="cls-1" d="M40.5,54h-6l1.45,1.9,10-54L44.5,3h6L49.05,1.1l-10,54c-.35,1.89,2.54,2.7,2.89.8l10-54A1.52,1.52,0,0,0,50.5,0h-6a1.52,1.52,0,0,0-1.45,1.1l-10,54A1.52,1.52,0,0,0,34.5,57h6A1.5,1.5,0,0,0,40.5,54Z"/><polygon class="cls-3" points="10.47 89.69 64.92 89.69 63.18 106.32 12.41 106.32 10.47 89.69"/></g></g></svg>